<svg xmlns="http://www.w3.org/2000/svg" xmlns:xlink="http://www.w3.org/1999/xlink" viewBox="0,0,256,256" width="50px" height="50px" fill-rule="nonzero"><g fill="#3b3e4f" fill-rule="nonzero" stroke="none" stroke-width="1" stroke-linecap="butt" stroke-linejoin="miter" stroke-miterlimit="10" stroke-dasharray="" stroke-dashoffset="0" font-family="none" font-weight="none" font-size="none" text-anchor="none" style="mix-blend-mode: normal"><g transform="scale(5.12,5.12)"><path d="M41.08789,0l-22.08789,22h7l-9,11h5l-10.91211,17l21.91211,-22h-6l9,-11h-6zM25,2c-12.682,0 -23,10.318 -23,23c0,8.038 4.14616,15.12038 10.41016,19.23438l1.08399,-1.68555c-5.71,-3.758 -9.49414,-10.21683 -9.49414,-17.54883c0,-11.58 9.42,-21 21,-21c2.733,0 5.33933,0.54014 7.73633,1.49414l1.53906,-1.5332c-2.839,-1.257 -5.97539,-1.96094 -9.27539,-1.96094zM39.03906,6.80078l-1.10352,1.69141c4.9,3.848 8.06445,9.80881 8.06445,16.50781c0,11.58 -9.42,21 -21,21c-2.15,0 -4.22569,-0.32864 -6.17969,-0.93164l-1.57617,1.58203c2.424,0.871 5.03586,1.34961 7.75586,1.34961c12.682,0 23,-10.318 23,-23c0,-7.399 -3.51594,-13.98922 -8.96094,-18.19922z"></path></g></g></svg>